<?xml version="1.0"?>
<svg xmlns="http://www.w3.org/2000/svg" height="512px" viewBox="0 -84 512.00158 512" width="512px"><g><path d="m161.917969 257.539062c-15.945313 0-28.917969 12.972657-28.917969 28.914063 0 15.945313 12.972656 28.917969 28.917969 28.917969 15.945312 0 28.914062-12.972656 28.914062-28.917969 0-15.941406-12.96875-28.914063-28.914062-28.914063zm0 42.835938c-7.675781 0-13.917969-6.246094-13.917969-13.917969 0-7.675781 6.242188-13.917969 13.917969-13.917969 7.671875 0 13.917969 6.242188 13.917969 13.917969 0 7.671875-6.246094 13.917969-13.917969 13.917969zm0 0" data-original="#000000" class="active-path" data-old_color="#000000" fill="#10E299"/><path d="m396.6875 257.539062c-15.945312 0-28.917969 12.972657-28.917969 28.914063 0 15.945313 12.972657 28.917969 28.917969 28.917969s28.917969-12.972656 28.917969-28.917969c0-15.941406-12.972657-28.914063-28.917969-28.914063zm0 42.835938c-7.675781 0-13.917969-6.246094-13.917969-13.917969 0-7.675781 6.242188-13.917969 13.917969-13.917969s13.917969 6.242188 13.917969 13.917969c0 7.671875-6.242188 13.917969-13.917969 13.917969zm0 0" data-original="#000000" class="active-path" data-old_color="#000000" fill="#10E299"/><path d="m497.996094 172.355469v-10.582031c0-10.28125-7.507813-18.820313-17.324219-20.476563v-21.246094c0-28.804687-23.433594-52.238281-52.238281-52.238281h-54.03125v-20.4375c0-26.121094-21.253906-47.375-47.375-47.375h-168.882813c-24.554687 0-48.109375 11.648438-63.019531 31.15625l-51.933594 67.96875c-2.515625 3.289062-1.886718 7.996094 1.402344 10.511719 3.292969 2.515625 8 1.886719 10.511719-1.40625l51.9375-67.96875c12.089843-15.816407 31.191406-25.261719 51.101562-25.261719h168.882813c17.851562 0 32.375 14.523438 32.375 32.375v194.421875c-7.996094 6.683594-14.167969 15.476563-17.671875 25.507813h-124.855469c-7.941406-22.714844-29.570312-39.058594-54.957031-39.058594s-47.019531 16.34375-54.957031 39.058594h-15.960938c-16.6875 0-32.308594-8.9375-40.769531-23.320313l-29.875-50.785156c-7.972657-13.554688-6.957031-30.390625 2.59375-42.886719l11.871093-15.535156c2.515626-3.292969 1.886719-7.996094-1.40625-10.511719-3.289062-2.515625-7.996093-1.886719-10.511718 1.40625l-11.871094 15.535156c-13.269531 17.367188-14.6875 40.757813-3.605469 59.597657l29.875 50.785156c7.667969 13.039062 19.808594 22.675781 33.796875 27.417968 4.625 33.328126 38.296875 32.519532 38.296875 32.519532 9.382813 19.582031 29.398438 33.136718 52.523438 33.136718s43.140625-13.554687 52.523437-33.136718h129.722656c9.382813 19.582031 29.398438 33.136718 52.523438 33.136718 4.140625 0 7.5-3.355468 7.5-7.496093 0-4.144531-3.359375-7.5-7.5-7.5-23.828125 0-43.210938-19.386719-43.210938-43.210938 0-23.828125 19.382813-43.214843 43.210938-43.214843s43.210938 19.386718 43.210938 43.214843c0 13.203125-5.921876 25.507813-16.246094 33.765625-3.234375 2.585938-3.761719 7.304688-1.171875 10.539063 2.585937 3.234375 7.304687 3.761719 10.539062 1.175781 7-5.601562 12.496094-12.585938 16.226563-20.410156 0 0 37.492187 2.757812 41.664062-32.265625 12.410156-5.511719 21.089844-17.945313 21.089844-32.378907v-44.195312c0-11.757812-5.167969-22.796875-14.003906-30.332031zm-411.054688 109.8125c1.347656.089843 16.929688.132812 16.929688.132812-.097656 1.375.144531 10.882813.707031 14.125-8.296875-.816406-15.160156-6.5625-17.636719-14.257812zm74.976563 47.5c-23.828125 0-43.210938-19.386719-43.210938-43.210938 0-23.828125 19.382813-43.214843 43.210938-43.214843s43.210937 19.386718 43.210937 43.214843c0 23.824219-19.382812 43.210938-43.210937 43.210938zm57.320312-33.136719c.574219-3.277344.820313-12.855469.722657-14.230469h118.679687c-.097656 1.375.152344 10.953125.726563 14.230469zm263.757813-134.757812v17.875c0 3.191406-2.597656 5.792968-5.792969 5.792968-3.191406 0-5.792969-2.601562-5.792969-5.792968v-17.875c0-3.195313 2.601563-5.792969 5.792969-5.792969 3.195313 0 5.792969 2.597656 5.792969 5.792969zm-54.5625-78.960938c20.535156 0 37.242187 16.703125 37.242187 37.238281v24.433594c-10.003906 6.089844-9.261719 18.324219-9.261719 18.324219h-2.441406v-33.011719c0-19.105469-15.542968-34.652344-34.648437-34.652344h-44.921875v-12.332031zm-54.03125 27.332031h44.925781c10.832031 0 19.648437 8.816407 19.648437 19.648438v33.015625h-64.574218zm79.621094 186.386719c.574218-3.296875 1.359374-8.933594.707031-14.230469h20.300781c-4.171875 15.039063-21.007812 14.230469-21.007812 14.230469zm42.976562-49.648438c0 11.261719-9.15625 20.421876-20.417969 20.421876h-24.9375c-7.9375-22.714844-29.570312-39.058594-54.957031-39.058594-7.890625 0-15.417969 1.585937-22.285156 4.441406v-54.878906h82.011718s-.480468 22.628906 20.792969 22.628906c7.082031 0 13.34375-3.566406 17.101563-8.996094 1.742187 3.433594 2.695312 7.273438 2.695312 11.246094v44.195312zm0 0" data-original="#000000" class="active-path" data-old_color="#000000" fill="#10E299"/><path d="m261.457031 85.308594c-3.863281-1.496094-8.207031.421875-9.703125 4.285156l-3.199218 8.253906-22.117188-38.3125c-1.339844-2.320312-3.816406-3.75-6.496094-3.75-2.679687 0-5.152344 1.429688-6.492187 3.75l-29.953125 51.875c-2.070313 3.589844-.757813 8.039063 2.746094 10.246094 4.632812 2.921875 8.855468-.339844 10.246093-2.746094l23.453125-40.625 15.476563 26.800782-9.136719-1.558594c-4.082031-.695313-7.957031 2.046875-8.65625 6.132812-.695312 4.082032 2.050781 7.957032 6.132812 8.652344l24.875 4.242188c2.875.492187 6.585938-.398438 8.253907-4.683594l8.855469-22.859375c1.496093-3.863281-.425782-8.207031-4.285157-9.703125zm0 0" data-original="#000000" class="active-path" data-old_color="#000000" fill="#10E299"/><path d="m141.25 147.609375c.636719 4.09375 4.46875 6.894531 8.5625 6.257813l8.746094-1.359376-22.117188 38.3125c-1.339844 2.320313-1.339844 5.179688 0 7.5 1.339844 2.320313 3.816406 3.75 6.492188 3.75h59.902344c4.140624 0 7.339843-3.359374 7.5-7.5.210937-5.472656-4.722657-7.5-7.5-7.5h-46.914063l15.476563-26.800781 3.21875 8.691407c1.4375 3.882812 5.75 5.867187 9.636718 4.429687 3.882813-1.4375 5.867188-5.753906 4.425782-9.636719l-8.761719-23.664062c-1.007813-2.734375-3.636719-5.503906-8.183594-4.804688l-24.226563 3.761719c-4.089843.632813-6.894531 4.46875-6.257812 8.5625zm0 0" data-original="#000000" class="active-path" data-old_color="#000000" fill="#10E299"/><path d="m256.425781 219.429688c3.226563-2.601563 3.738281-7.316407 1.140625-10.546876l-5.550781-6.894531h44.242187c2.675782 0 5.152344-1.429687 6.492188-3.75 1.339844-2.320312 1.339844-5.179687 0-7.5l-29.949219-51.875c-2.070312-3.585937-6.582031-4.675781-10.246093-2.746093-4.84375 2.554687-4.132813 7.839843-2.742188 10.246093l23.453125 40.625h-30.945313l5.917969-7.132812c2.640625-3.1875 2.203125-7.914063-.984375-10.5625-3.1875-2.644531-7.914062-2.203125-10.5625.984375l-16.109375 19.421875c-1.863281 2.242187-2.949219 5.902343-.070312 9.488281l15.371093 19.101562c2.597657 3.226563 7.316407 3.738282 10.542969 1.140626zm0 0" data-original="#000000" class="active-path" data-old_color="#000000" fill="#10E299"/></g> </svg>
