<?xml version="1.0"?>
<svg xmlns="http://www.w3.org/2000/svg" id="Layer_35" enable-background="new 0 0 64 64" height="512px" viewBox="0 0 64 64" width="512px"><g><path d="m54.037 45.053c-.436 1.165-1.565 1.947-2.809 1.947h-2.228v-20.051c-3.096-.237-5.888-1.558-8-3.59v5.641h-12v-6h-8v24h-2c-.732 0-1.409.212-2 .556v-19.556-3c0-1.654-1.346-3-3-3h-10c-1.654 0-3 1.346-3 3s1.346 3 3 3h11v23c0 1.352.677 2.543 1.706 3.268-1.037.917-1.706 2.242-1.706 3.732 0 2.757 2.243 5 5 5s5-2.243 5-5c0-1.13-.391-2.162-1.026-3h21.051c-.634.838-1.025 1.87-1.025 3 0 2.757 2.243 5 5 5s5-2.243 5-5-2.243-5-5-5h-30c-1.103 0-2-.897-2-2s.897-2 2-2h32.228c2.072 0 3.954-1.304 4.683-3.244l2.026-5.404-1.873-.703zm-13.037-.053v-2h2v2zm4 0v-2h2v2zm-8-6h10v2h-10zm0 4h2v2h-2z" data-original="#000000" class="active-path" data-old_color="#000000" fill="#FFCE00"/><path d="m31 23h8v4h-8z" data-original="#000000" class="active-path" data-old_color="#000000" fill="#FFCE00"/><path d="m44.535 11-1.535 2.303v.697c0 2.484 1.342 4.805 3.501 6.056l.499.289v4.229c.955.271 1.959.426 3 .426s2.045-.155 3-.426v-4.229l.499-.289c2.159-1.251 3.501-3.572 3.501-6.056v-.697l-1.535-2.303h-2.465v6h-6v-6z" data-original="#000000" class="active-path" data-old_color="#000000" fill="#FFCE00"/><path d="m50 3c-6.065 0-11 4.935-11 11 0 4.264 2.444 7.961 6 9.786v-2.311c-2.481-1.663-4-4.476-4-7.475v-1.303l2.465-3.697h5.535v6h2v-6h5.535l2.465 3.697v1.303c0 2.999-1.519 5.812-4 7.475v2.311c3.556-1.825 6-5.521 6-9.786 0-6.065-4.935-11-11-11z" data-original="#000000" class="active-path" data-old_color="#000000" fill="#FFCE00"/></g> </svg>
