<?xml version="1.0"?>
<svg xmlns="http://www.w3.org/2000/svg" viewBox="0 0 512 512" width="512px" height="512px" class=""><g><g id="Out_line" data-name="Out line"><path d="M491.79541,120.957,315.83105,24.97656A8.00561,8.00561,0,0,0,312,24H200a7.98255,7.98255,0,0,0-3.83081.97681l-.00024-.00025-176,96A8.00011,8.00011,0,0,0,16,128V488a8.00039,8.00039,0,0,0,8,8H216V480h-8V296a8.00039,8.00039,0,0,0-8-8H88a8.00039,8.00039,0,0,0-8,8V480H64V256H336v48h16V152a8.00039,8.00039,0,0,0-8-8H56a8.00039,8.00039,0,0,0-8,8V480H32V132.749L200,41.113l168,91.63647V272h16V136h96V480H440v16h48a8.00039,8.00039,0,0,0,8-8V128A7.99871,7.99871,0,0,0,491.79541,120.957ZM64,240V224H336v16Zm0-32V192H336v16Zm272-48v16H64V160ZM160,368h32v48H160Zm-16,48H96V368h48Zm16,64V432h32v48Zm32-128H160V304h32Zm-48-48v48H96V304ZM96,432h48v48H96ZM378.04053,120,231.37305,40H309.96l146.666,80Z" data-original="#000000" class="active-path" data-old_color="#000000" fill="#EB7D16"/><path d="M424,440a24.03919,24.03919,0,0,0-16-22.624V363.00586l42.41113-48.46973A16.0001,16.0001,0,0,0,438.37012,288H395.62988a15.99774,15.99774,0,0,0-12.041,5.46484L360.36963,320H288a8.00039,8.00039,0,0,0-8,8v56H240a8.00039,8.00039,0,0,0-8,8v56h-8v16h9.37622a23.99988,23.99988,0,1,0,45.2478,0h18.752a24,24,0,1,0,45.248,0h34.752a24,24,0,1,0,45.248,0H432V448h-8Zm-32,8v-8a8,8,0,0,1,16,0v8Zm-80,0V400h32v48Zm80-112v48H360V336Zm-32,64h32v17.376A24.03919,24.03919,0,0,0,376,440v8H360Zm35.62988-96,42.73633.00391L408,338.709V328a8.00039,8.00039,0,0,0-8-8H381.63037ZM296,336h48v48H296ZM264,472a8,8,0,1,1-8-8A8.00917,8.00917,0,0,1,264,472Zm-16-24V400h48v48Zm80,24a8,8,0,1,1-8-8A8.00917,8.00917,0,0,1,328,472Zm72,8a8,8,0,1,1,8-8A8.00917,8.00917,0,0,1,400,480Z" data-original="#000000" class="active-path" data-old_color="#000000" fill="#EB7D16"/></g></g> </svg>
