<?xml version="1.0"?>
<svg xmlns="http://www.w3.org/2000/svg" viewBox="0 0 128 128" width="512px" height="512px"><g><g id="Layer_2" data-name="Layer 2"><path d="M105.729,111.733l-4.788-5.451a6.294,6.294,0,0,1-1.566-4.157V56.25A25.76,25.76,0,0,0,86.35,33.878,5.625,5.625,0,0,0,85.188,22.75H80.32A16.3,16.3,0,0,0,86.583,9.917V1.75A1.75,1.75,0,0,0,84.833,0,24.515,24.515,0,0,0,64,11.608,24.515,24.515,0,0,0,43.167,0a1.75,1.75,0,0,0-1.75,1.75V9.917A16.3,16.3,0,0,0,47.68,22.75H42.813A5.625,5.625,0,0,0,41.65,33.878,25.76,25.76,0,0,0,28.625,56.25v45.875a6.294,6.294,0,0,1-1.567,4.158l-4.787,5.449A9.8,9.8,0,0,0,29.633,128H98.367a9.8,9.8,0,0,0,7.362-16.267ZM44.917,9.917V3.573A21.018,21.018,0,0,1,62.4,16.063a1.75,1.75,0,0,0,3.2,0A21.018,21.018,0,0,1,83.083,3.573V9.917A12.848,12.848,0,0,1,70.25,22.75H57.75A12.848,12.848,0,0,1,44.917,9.917ZM42.813,30.5a2.125,2.125,0,0,1,0-4.25H85.188a2.125,2.125,0,0,1,0,4.25Zm55.554,94H29.633A6.3,6.3,0,0,1,24.9,114.042l4.788-5.449a9.8,9.8,0,0,0,2.437-6.468V56.25A22.275,22.275,0,0,1,54.375,34h19.25a22.275,22.275,0,0,1,22.25,22.25v45.875a9.794,9.794,0,0,0,2.437,6.467l4.788,5.451A6.3,6.3,0,0,1,98.367,124.5Z" data-original="#000000" class="active-path" data-old_color="#000000" fill="#FFCE00"/><path d="M67.649,90.423a1.4,1.4,0,0,0-.042-.144,1.756,1.756,0,0,0-.057-.183,1.633,1.633,0,0,0-.085-.16,1.6,1.6,0,0,0-.076-.141,1.8,1.8,0,0,0-.218-.267l-4.839-4.839a1.751,1.751,0,0,0-2.988,1.237v3.09H50.939l2.43-4.209a1.75,1.75,0,0,0-3.031-1.75l-3.946,6.834a1.75,1.75,0,0,0,1.516,2.625H59.344v3.09a1.751,1.751,0,0,0,2.988,1.238L67.171,92a1.778,1.778,0,0,0,.219-.268c.028-.042.047-.088.072-.133a1.673,1.673,0,0,0,.088-.168,1.559,1.559,0,0,0,.055-.176c.015-.05.034-.1.045-.15a1.847,1.847,0,0,0,.034-.339v0h0A1.721,1.721,0,0,0,67.649,90.423Z" data-original="#000000" class="active-path" data-old_color="#000000" fill="#FFCE00"/><path d="M75.89,79.987l2.676-1.545a1.75,1.75,0,0,0-.422-3.206l-6.612-1.772-.013,0a1.726,1.726,0,0,0-.328-.053c-.053,0-.1,0-.157,0s-.122,0-.183.007a1.7,1.7,0,0,0-.2.046c-.044.011-.088.016-.132.031a1.767,1.767,0,0,0-.6.345c-.029.025-.051.055-.078.082a1.752,1.752,0,0,0-.154.168,1.352,1.352,0,0,0-.082.13,1.505,1.505,0,0,0-.1.159,1.729,1.729,0,0,0-.114.3l-.007.018-1.772,6.611a1.75,1.75,0,0,0,2.566,1.969l2.676-1.545,4.2,7.279H72.2a1.75,1.75,0,0,0,0,3.5h7.891a1.75,1.75,0,0,0,1.516-2.625Z" data-original="#000000" class="active-path" data-old_color="#000000" fill="#FFCE00"/><path d="M53.3,78.958h0a1.758,1.758,0,0,0,.221.483c.015.023.027.048.043.071a1.762,1.762,0,0,0,.337.354c.028.022.057.041.087.062s.081.065.127.092a1.751,1.751,0,0,0,.206.085c.053.022.1.048.158.065a1.728,1.728,0,0,0,.509.084h0c.008,0,.016,0,.024,0a1.747,1.747,0,0,0,.426-.056h0l6.612-1.771a1.751,1.751,0,0,0,.422-3.206L59.8,73.672,64,66.394,66.43,70.6a1.75,1.75,0,0,0,3.031-1.75l-3.945-6.834a1.751,1.751,0,0,0-3.032,0l-5.718,9.9L54.09,70.377a1.75,1.75,0,0,0-2.565,1.969Z" data-original="#000000" class="active-path" data-old_color="#000000" fill="#FFCE00"/></g></g> </svg>
